PathFileType	4	(X/Y/Z)	C:/Users/beibeiliu/ov580/test_trc/User1\sequence.13_training_dense_right.trc
DataRate	CameraRate	NumFrames	NumMarkers	Units	OrigDataRate	OrigDataStartFrame	OrigNumFrames
120	120	18	19	mm	120	159	316
Frame#	Time	ThumbCMC			ThumbMCP			ThumbIP			ThumbTip			IndexMCP			IndexPIP			IndexTip			MiddleMCP			MiddlePIP			MiddleTip			RingMCP			RingPIP			RingTip			PinkyMCP			PinkyPIP			PinkyTip			BackHand1			BackHand2			BackHand3	
		X0	Y0	Z0	X1	Y1	Z1	X2	Y2	Z2	X3	Y3	Z3	X4	Y4	Z4	X5	Y5	Z5	X6	Y6	Z6	X7	Y7	Z7	X8	Y8	Z8	X9	Y9	Z9	X10	Y10	Z10	X11	Y11	Z11	X12	Y12	Z12	X13	Y13	Z13	X14	Y14	Z14	X15	Y15	Z15	X16	Y16	Z16	X17	Y17	Z17	X18	Y18	Z18	
158	1.31667	96.0723	-2.78146	32.378	82.6791	-11.2247	1.3241	85.4153	-13.7605	-28.8827	87.6785	-21.9805	-55.5884	136.475	17.9284	-34.218	123.124	2.87641	-58.5857	107.085	-28.8342	-45.8046	170.73	13.1787	-24.413	177.176	20.8503	-51.7017	185.178	23.1188	-81.6988	186.153	-7.6721	-10.3026	199.777	2.32509	-31.0523	213.055	11.3423	-56.2388	187.693	-41.4726	4.2753	203.396	-37.7855	-10.9028	223.519	-36.7268	-17.4103	165.885	-19.3882	33.2114	152.487	-25.2557	64.088	135.203	5.22966	44.4442	
159	1.325	101.73	1.53455	33.3242	94.8833	-8.61985	-1.82674	93.0541	-11.2851	-27.9252	95.9466	-20.9156	-57.0606	147.698	13.3298	-35.7834	136.648	-2.85318	-58.8131	110.914	-27.3698	-46.9477	181.273	3.57143	-22.6086	193.1	7.98112	-55.4753	199.11	8.44723	-79.4364	191.901	-18.7433	-8.57487	212.818	-12.8438	-30.3038	226.212	-11.8869	-50.6969	186.572	-49.9083	5.58066	206.171	-55.2767	-6.10154	226.281	-51.8733	-17.1706	168.668	-28.9075	37.9258	158.081	-33.1405	65.2171	148.637	-0.0251071	44.0541	
160	1.33333	113.051	1.75822	28.9223	95.4804	-3.15237	-4.24698	94.5231	-6.51684	-32.3857	97.5675	-19.4379	-58.8432	156.5	8.47943	-35.9232	142.951	-8.46642	-59.2556	113.849	-30.5388	-46.0394	189.686	-3.53689	-26.8379	199.564	-0.78391	-54.9224	207.96	-4.91314	-79.3904	199.744	-28.3142	-10.1536	217.14	-25.4753	-29.9068	232.828	-27.4483	-52.3882	188.63	-61.8292	5.35279	201.731	-65.1675	-5.82296	222.792	-70.115	-13.9571	169.829	-32.3797	38.63	160.07	-36.331	64.9642	150.592	-0.423537	44.2994	
161	1.34167	116.046	5.37119	30.4866	102.057	-0.657082	-6.32375	102.091	-5.28229	-36.1022	99.4307	-16.9181	-55.6862	164.187	3.68515	-35.1458	147.574	-13.2779	-59.6383	116.364	-29.6913	-46.8998	194.87	-11.746	-26.3801	205.49	-15.9021	-50.1898	213.066	-13.3199	-79.5373	199.76	-39.4951	-8.69854	219.988	-39.1855	-29.4927	232.234	-41.5475	-48.709	185.745	-68.9455	3.81466	198.588	-78.9478	-4.84406	219.329	-84.422	-13.6855	172.269	-35.2744	35.3838	157.63	-37.4369	69.1579	156.605	-2.87655	45.7908	
162	1.35	124.345	7.83565	28.6824	107.068	4.82809	-6.0101	106.342	-1.46357	-32.5807	102.949	-14.0142	-54.8831	168.921	-1.3776	-33.7632	150.772	-14.5016	-59.536	120.408	-24.3883	-52.0672	198.282	-21.847	-26.5733	207.874	-20.9876	-51.834	217.243	-23.4678	-83.4249	199.56	-45.4506	-10.51	218.376	-47.3651	-29.3359	232.721	-52.1401	-54.0589	179.733	-76.4362	6.54152	194.322	-84.028	-7.76206	214.476	-92.3345	-19.1094	173.591	-44.8374	34.316	159.997	-42.9415	67.4777	161.76	-5.6157	41.1185	
163	1.35833	127.613	11.1481	30.2353	114.082	6.12024	-7.21302	111.267	-0.476092	-34.3716	104.934	-10.4793	-56.359	169.595	-1.19513	-39.1299	150.624	-12.6093	-59.7225	117.497	-25.0294	-49.7066	198.575	-26.535	-25.735	208.806	-32.2946	-52.9006	214.729	-31.3604	-80.8131	197.75	-54.9113	-10.8489	216.066	-60.7205	-31.4554	227.338	-65.0155	-52.2686	175.298	-79.6914	1.7944	187.492	-88.3765	-11.2399	208.431	-99.0694	-21.5489	171.586	-46.177	35.3062	160.36	-45.1086	64.9331	163.193	-10.5432	44.6	
164	1.36667	133.5	9.47669	29.8187	116.166	9.35986	-5.68403	113.35	4.49185	-35.5522	105.476	-5.30057	-53.767	174.881	-6.52328	-37.2302	149.278	-8.7673	-61.3977	120.761	-16.9542	-53.2628	198.048	-32.2686	-29.2376	206.828	-34.5796	-55.9535	214.567	-39.4838	-85.6942	193.582	-59.3411	-13.5827	210.28	-66.1021	-34.7816	223.416	-71.1722	-57.7496	167.922	-82.0624	1.01117	176.843	-95.5204	-10.8937	198.671	-105.787	-24.4852	169.235	-52.128	34.4927	154.942	-48.4471	66.9358	165.171	-13.9089	44.286	
165	1.375	137.042	10.551	31.7968	118.376	11.5773	-5.41199	114.157	9.3281	-36.9243	106.489	-2.64876	-56.4623	175.681	-5.61645	-36.1712	151.366	-7.91553	-62.7208	121.696	-10.5089	-55.1179	193.92	-41.3908	-27.4699	204.28	-42.3198	-59.3206	210.809	-46.0635	-86.8773	187.487	-65.3366	-14.3907	203.811	-67.3253	-35.2526	215.835	-77.8355	-59.6652	163.574	-81.8096	-4.64298	170.304	-92.9723	-14.0259	187.801	-109.709	-24.73	164.607	-51.4285	35.2939	153.313	-50.7201	62.7979	167.385	-16.7366	42.5948	
166	1.38333	139.474	10.5843	27.4132	119.896	11.4263	-5.96977	112.417	12.2349	-30.9799	105.216	2.37017	-52.9931	175.493	-10.939	-38.2879	151.237	-9.38682	-63.0368	120.642	-6.351	-55.7064	193.822	-38.7278	-31.5105	202.073	-39.756	-59.7519	207.652	-43.2248	-91.0803	183.632	-63.6535	-15.3246	200.245	-72.6527	-39.2632	210.633	-76.8753	-61.4437	156.626	-77.7613	-2.07705	165.214	-94.3736	-14.9324	182.365	-103.29	-28.6199	162.722	-51.258	29.3566	152.082	-49.7024	60.0444	169.198	-17.2511	42.0758	
167	1.39167	135.405	15.4823	30.0818	116.177	13.9335	-2.67937	110.411	12.1904	-34.9201	100.08	3.08432	-52.035	173.013	-3.50788	-39.8347	151.906	-5.01565	-63.6176	115.144	-4.19612	-54.234	190.786	-33.3834	-31.5331	197.409	-36.7813	-58.8633	202.652	-41.6381	-92.1302	181.487	-59.7825	-16.7018	200.093	-64.9449	-42.0872	207.346	-71.8672	-64.5492	155.829	-77.6347	-3.31368	166.602	-86.8567	-17.7582	182.661	-99.2081	-31.9521	161.128	-50.3447	28.144	152.476	-48.9971	61.9327	168.484	-16.9024	41.3718	
168	1.4	123.566	17.2802	33.9647	105.852	9.87693	-0.316357	99.1328	8.13907	-26.0904	91.2821	0.290463	-48.8082	162.741	4.63484	-37.0628	138.268	-2.08611	-63.181	107.735	-3.14812	-53.1808	183.741	-20.9926	-32.0904	190.297	-21.4968	-60.9585	191.893	-26.1445	-92.163	181.579	-49.948	-19.5164	199.804	-52.3671	-47.0864	207.253	-52.1338	-71.289	162.646	-72.868	-7.61479	173.809	-76.588	-23.5618	190.992	-84.9821	-35.24	162.872	-43.9204	29.1724	157.027	-41.8351	58.2108	161.441	-9.97176	42.4713	
169	1.40833	111.018	13.601	36.9921	90.6698	7.43531	3.70991	84.2117	4.177	-21.5958	74.4732	-4.1201	-48.4076	146.977	11.1779	-41.8842	126.114	5.17368	-61.8458	96.2971	-4.36852	-50.3712	173.221	-4.23305	-34.5618	178.113	-0.963922	-66.9566	179.325	-3.58937	-96.4439	178.231	-31.4198	-22.6292	194.949	-29.5475	-50.4132	202.038	-28.5442	-75.7332	167.826	-60.8947	-11.1717	176.795	-64.7521	-23.7429	197.084	-65.0081	-44.4347	164.864	-34.0976	25.7355	155.012	-32.7211	60.7399	152.246	-0.960804	41.8682	
170	1.41667	100.049	6.73089	35.7889	77.1332	-2.0416	6.73861	70.1776	-3.6841	-22.5427	66.7477	-14.8046	-41.8705	129.774	19.2084	-37.148	111.472	5.70751	-60.5275	83.1811	-14.3594	-41.852	161.1	6.55948	-36.7805	161.779	14.2817	-69.0806	163.278	11.6144	-99.2211	171.145	-14.0776	-25.7312	183.942	-10.7284	-49.5458	192.981	-8.76702	-77.5302	169.106	-46.6887	-13.403	181.349	-49.201	-32.0311	199.615	-50.2098	-48.7241	160.628	-23.6513	22.6029	156.492	-25.2456	57.5213	142.326	3.45655	42.0318	
171	1.425	86.0745	0.933191	37.8205	71.0124	-13.1092	10.7487	63.7761	-15.7376	-18.8356	57.7312	-24.8312	-40.6451	109.521	21.8624	-37.7466	93.6706	1.7593	-59.4807	76.1764	-22.7176	-39.5922	144.497	18.9553	-39.7217	145.826	23.068	-69.0271	145.318	24.8564	-98.9559	162.785	-4.33345	-27.0804	170.49	7.11159	-55.526	179.263	9.8325	-81.1891	169.428	-33.5008	-18.0394	177.614	-34.6388	-31.2295	196.279	-29.265	-51.4709	153.184	-12.1154	23.116	153.941	-18.3924	53.6904	128.735	11.248	42.4652	
172	1.43333	79.9039	-8.15632	41.0271	62.8078	-22.4587	13.2867	51.2336	-25.4694	-15.0611	50.7341	-33.7894	-39.6755	89.8656	20.8	-32.6467	75.353	-1.90232	-55.6967	68.5815	-32.4103	-36.1594	122.994	26.2977	-36.7471	119.948	33.1514	-67.3445	121.796	32.0487	-95.5776	148.564	8.79576	-30.401	155.261	17.1017	-52.9946	156.127	25.1643	-79.371	163.863	-24.8601	-16.2119	174.205	-21.6676	-35.1869	185.216	-10.6585	-54.0509	145.729	-4.53628	21.0599	147.297	-10.7763	52.9589	120.506	9.85049	42.8252	
173	1.44167	75.2658	-15.5469	46.1192	58.4241	-30.5278	17.9177	45.0867	-34.1113	-9.65023	43.4779	-43.571	-36.0691	72.6254	14.8187	-32.1847	66.2991	-8.78413	-53.2013	68.4677	-40.529	-34.2743	108.651	26.6309	-35.8799	100.692	33.8679	-62.8893	98.1757	35.3568	-94.3797	134.911	14.2309	-28.3213	135.89	26.3925	-53.7677	138.452	34.046	-80.9614	156.146	-15.3396	-18.2835	161.334	-9.38689	-35.608	173.627	4.23675	-52.6679	136.241	-1.43032	23.0325	143.466	-5.82378	55.0521	105.748	10.8334	43.8938	
174	1.45	69.0999	-20.584	50.8187	52.1271	-35.1984	19.197	42.2994	-41.1777	-2.65294	37.5596	-50.8425	-30.757	61.3525	9.23228	-28.9926	54.7962	-15.2895	-48.3431	63.3319	-46.9264	-28.8591	96.3666	24.558	-32.9618	87.5152	29.6531	-58.7274	78.2281	34.8922	-89.2342	124.284	16.9556	-27.1794	124.37	30.8819	-56.5284	125.668	37.2939	-80.2101	146.953	-8.89835	-20.6093	153.403	-4.20949	-36.8398	162.415	10.9398	-55.5506	129.561	3.92366	22.7903	139.609	-4.91499	54.2353	100.497	7.42097	46.2097	
175	1.45833	65.0928	-23.6549	51.6856	47.2281	-39.4857	22.6443	35.2546	-44.7651	-1.79021	37.1822	-53.3394	-24.699	54.8699	4.42978	-25.1587	48.659	-21.4994	-45.9088	57.0546	-50.8987	-24.0029	83.0429	22.4815	-30.8718	72.5778	28.9546	-61.3311	70.4674	29.6685	-87.3157	115.321	18.1489	-28.8606	112.713	30.7674	-54.2039	111.944	35.6632	-76.1151	141.251	-5.09753	-23.2506	144.359	0.879079	-38.9498	155.102	14.3598	-51.2414	126.009	3.28706	24.137	131.037	-4.3638	55.0447	95.3744	8.42465	45.5711	
